<svg width="36" height="35" viewBox="0 0 36 35" fill="none" xmlns="http://www.w3.org/2000/svg">
<g filter="url(#filter0_d_172_127)">
<path d="M31.8826 22.5009L24.3802 14.9993L31.8802 7.4985C32.0293 7.34924 32.113 7.14688 32.113 6.9359C32.113 6.72491 32.0293 6.52255 31.8802 6.3733L26.6262 1.1181C26.4769 0.968852 26.2744 0.88501 26.0634 0.88501C25.8523 0.88501 25.6498 0.968852 25.5006 1.1181L17.9994 8.6189L10.4994 1.1181C10.201 0.819296 9.67255 0.819296 9.37375 1.1181L4.11856 6.3725C3.96931 6.52177 3.88547 6.72421 3.88547 6.9353C3.88547 7.14638 3.96931 7.34882 4.11856 7.4981L11.6198 14.9993L4.11736 22.5013C3.9684 22.6507 3.88477 22.8531 3.88477 23.0641C3.88477 23.2751 3.9684 23.4775 4.11736 23.6269L9.37176 28.8817C9.52103 29.0309 9.72347 29.1148 9.93456 29.1148C10.1456 29.1148 10.3481 29.0309 10.4974 28.8817L17.9994 21.3797L25.5018 28.8813C25.6574 29.0365 25.8602 29.1145 26.0646 29.1145C26.269 29.1145 26.4722 29.0365 26.6278 28.8813L31.883 23.6265C32.0321 23.4772 32.1159 23.2747 32.1158 23.0636C32.1158 22.8525 32.0319 22.6501 31.8826 22.5009Z" fill="#2C3E50"/>
</g>
<defs>
<filter id="filter0_d_172_127" x="0.884766" y="0.88501" width="34.2314" height="35.2297" filterUnits="userSpaceOnUse" color-interpolation-filters="sRGB">
<feFlood flood-opacity="0" result="BackgroundImageFix"/>
<feColorMatrix in="SourceAlpha" type="matrix" values="0 0 0 0 0 0 0 0 0 0 0 0 0 0 0 0 0 0 127 0" result="hardAlpha"/>
<feOffset dy="4"/>
<feGaussianBlur stdDeviation="1.5"/>
<feComposite in2="hardAlpha" operator="out"/>
<feColorMatrix type="matrix" values="0 0 0 0 0 0 0 0 0 0 0 0 0 0 0 0 0 0 0.25 0"/>
<feBlend mode="normal" in2="BackgroundImageFix" result="effect1_dropShadow_172_127"/>
<feBlend mode="normal" in="SourceGraphic" in2="effect1_dropShadow_172_127" result="shape"/>
</filter>
</defs>
</svg>
