<svg width="40" height="40" viewBox="0 0 40 40" fill="none" xmlns="http://www.w3.org/2000/svg">
<path d="M33.8826 27.5009L26.3802 19.9993L33.8802 12.4985C34.0293 12.3492 34.113 12.1469 34.113 11.9359C34.113 11.7249 34.0293 11.5226 33.8802 11.3733L28.6262 6.1181C28.4769 5.96885 28.2744 5.88501 28.0634 5.88501C27.8523 5.88501 27.6498 5.96885 27.5006 6.1181L19.9994 13.6189L12.4994 6.1181C12.201 5.8193 11.6726 5.8193 11.3738 6.1181L6.11856 11.3725C5.96931 11.5218 5.88547 11.7242 5.88547 11.9353C5.88547 12.1464 5.96931 12.3488 6.11856 12.4981L13.6198 19.9993L6.11736 27.5013C5.9684 27.6507 5.88477 27.8531 5.88477 28.0641C5.88477 28.2751 5.9684 28.4775 6.11736 28.6269L11.3718 33.8817C11.521 34.0309 11.7235 34.1148 11.9346 34.1148C12.1456 34.1148 12.3481 34.0309 12.4974 33.8817L19.9994 26.3797L27.5018 33.8813C27.6574 34.0365 27.8602 34.1145 28.0646 34.1145C28.269 34.1145 28.4722 34.0365 28.6278 33.8813L33.883 28.6265C34.0321 28.4772 34.1159 28.2747 34.1158 28.0636C34.1158 27.8525 34.0319 27.6501 33.8826 27.5009Z" fill="#2C3E50"/>
</svg>
