<svg width="26" height="26" viewBox="0 0 26 26" fill="none" xmlns="http://www.w3.org/2000/svg">
<path fill-rule="evenodd" clip-rule="evenodd" d="M12.75 25.25C14.3915 25.25 16.017 24.9267 17.5335 24.2985C19.0501 23.6703 20.4281 22.7496 21.5888 21.5888C22.7496 20.4281 23.6703 19.0501 24.2985 17.5335C24.9267 16.017 25.25 14.3915 25.25 12.75C25.25 11.1085 24.9267 9.48303 24.2985 7.96646C23.6703 6.44989 22.7496 5.0719 21.5888 3.91116C20.4281 2.75043 19.0501 1.82969 17.5335 1.20151C16.017 0.573322 14.3915 0.25 12.75 0.25C9.43479 0.25 6.25537 1.56696 3.91117 3.91116C1.56696 6.25537 0.25 9.43479 0.25 12.75C0.25 16.0652 1.56696 19.2446 3.91117 21.5888C6.25537 23.933 9.43479 25.25 12.75 25.25ZM12.4278 17.8056L19.3722 9.47222L17.2389 7.69444L11.2667 14.8597L8.17639 11.7681L6.2125 13.7319L10.3792 17.8986L11.4542 18.9736L12.4278 17.8056Z" fill="#1A252F"/>
</svg>
