<svg width="15" height="15" viewBox="0 0 15 15" fill="none" xmlns="http://www.w3.org/2000/svg">
<path d="M7.5 0C9.48912 0 11.3968 0.790176 12.8033 2.1967C14.2098 3.60322 15 5.51088 15 7.5C15 9.48912 14.2098 11.3968 12.8033 12.8033C11.3968 14.2098 9.48912 15 7.5 15C5.51088 15 3.60322 14.2098 2.1967 12.8033C0.790176 11.3968 0 9.48912 0 7.5C0 5.51088 0.790176 3.60322 2.1967 2.1967C3.60322 0.790176 5.51088 0 7.5 0ZM7.5 0.789474C5.72026 0.789474 4.01341 1.49647 2.75494 2.75494C1.49647 4.01341 0.789474 5.72026 0.789474 7.5C0.789474 9.27974 1.49647 10.9866 2.75494 12.2451C4.01341 13.5035 5.72026 14.2105 7.5 14.2105C8.38124 14.2105 9.25385 14.037 10.068 13.6997C10.8822 13.3625 11.6219 12.8682 12.2451 12.2451C12.8682 11.6219 13.3625 10.8822 13.6997 10.068C14.037 9.25385 14.2105 8.38124 14.2105 7.5C14.2105 5.72026 13.5035 4.01341 12.2451 2.75494C10.9866 1.49647 9.27974 0.789474 7.5 0.789474ZM7.10526 3.15789H7.89474V7.43684L11.6053 9.57632L11.2105 10.2632L7.10526 7.89474V3.15789Z" fill="#555855"/>
</svg>
