<svg width="24" height="24" viewBox="0 0 24 24" fill="none" xmlns="http://www.w3.org/2000/svg">
<path d="M5.71934 5.72C5.85997 5.57955 6.05059 5.50066 6.24934 5.50066C6.44809 5.50066 6.63871 5.57955 6.77934 5.72L11.9993 10.94L17.2193 5.72C17.311 5.62127 17.4276 5.5491 17.5569 5.51109C17.6861 5.47307 17.8232 5.47062 17.9537 5.504C18.0843 5.53737 18.2034 5.60533 18.2985 5.70072C18.3937 5.7961 18.4613 5.91539 18.4943 6.046C18.5276 6.17638 18.5253 6.31332 18.4874 6.44246C18.4496 6.57161 18.3777 6.68819 18.2793 6.78L13.0593 12L18.2793 17.22C18.3781 17.3117 18.4502 17.4283 18.4883 17.5575C18.5263 17.6868 18.5287 17.8239 18.4953 17.9544C18.462 18.0849 18.394 18.204 18.2986 18.2992C18.2032 18.3943 18.084 18.462 17.9533 18.495C17.823 18.5283 17.686 18.5259 17.5569 18.4881C17.4277 18.4503 17.3111 18.3784 17.2193 18.28L11.9993 13.06L6.77934 18.28C6.63719 18.4126 6.44909 18.4849 6.2547 18.4815C6.06031 18.4782 5.87482 18.3995 5.73734 18.262C5.59987 18.1245 5.52115 17.939 5.5178 17.7446C5.51444 17.5502 5.5867 17.3621 5.71934 17.22L10.9393 12L5.71934 6.78C5.57889 6.63937 5.5 6.44875 5.5 6.25C5.5 6.05125 5.57889 5.86062 5.71934 5.72Z" fill="black"/>
</svg>
