<svg width="110" height="110" viewBox="0 0 110 110" fill="none" xmlns="http://www.w3.org/2000/svg">
<circle cx="55" cy="55" r="45" fill="#1A252F"/>
<path d="M60.6667 49.1667V49.6667H61.1667H72.8333C74.2478 49.6667 75.6044 50.2287 76.6046 51.2288C77.6048 52.229 78.1667 53.5856 78.1667 55.0001C78.1667 56.4146 77.6048 57.7711 76.6046 58.7713C75.6054 59.7705 74.2506 60.3323 72.8377 60.3334L61.1755 60.1264L60.6667 60.1174V60.6263V72.5001C60.6667 73.9146 60.1048 75.2711 59.1046 76.2713C58.1044 77.2715 56.7478 77.8334 55.3333 77.8334C53.9188 77.8334 52.5623 77.2715 51.5621 76.2713C50.5629 75.2721 50.0011 73.9173 50 72.5043L50.207 60.635L50.216 60.1174L49.6984 60.1264L37.8291 60.3334C36.4161 60.3323 35.0613 59.7705 34.0621 58.7713C33.0619 57.7711 32.5 56.4146 32.5 55.0001C32.5 53.5856 33.0619 52.229 34.0621 51.2288C35.0623 50.2287 36.4188 49.6667 37.8333 49.6667H49.7071H50.216L50.207 49.1579L50 37.4957C50.0012 36.0828 50.5629 34.728 51.5621 33.7288C52.5623 32.7287 53.9188 32.1667 55.3333 32.1667C56.7478 32.1667 58.1044 32.7287 59.1046 33.7288C60.1048 34.729 60.6667 36.0856 60.6667 37.5001V49.1667Z" fill="white" stroke="black"/>
</svg>
