<svg width="15" height="15" viewBox="0 0 15 15" fill="none" xmlns="http://www.w3.org/2000/svg">
<path d="M7.58749 0C7.46978 0 7.35207 0.0032189 7.23436 0.008691L7.25981 0.587446C7.36797 0.582296 7.47614 0.579399 7.58749 0.579399C11.3669 0.579399 14.4274 3.67597 14.4274 7.5C14.4274 11.324 11.3669 14.4206 7.58749 14.4206C4.73701 14.4206 2.29533 12.6599 1.26776 10.1524L2.14677 9.88519L0.606044 8.78112L0 10.5354L0.717391 10.3197C1.81909 13.0622 4.4825 15 7.58749 15C11.6787 15 15 11.6395 15 7.5C15 3.36051 11.6787 0 7.58749 0ZM6.60763 0.0656653C6.18452 0.121996 5.77731 0.213734 5.37964 0.338627L5.55779 0.888734C5.92047 0.774785 6.29905 0.690773 6.68399 0.63927L6.60763 0.0656653ZM4.79427 0.55236C4.39979 0.714914 4.02439 0.9103 3.66808 1.13562L3.97031 1.62521C4.29799 1.41792 4.64475 1.23798 5.00742 1.08863L4.79427 0.55236ZM3.14634 1.49678C2.81236 1.75006 2.50001 2.03131 2.21262 2.33755L2.62778 2.73283C2.89183 2.45054 3.18134 2.19174 3.48674 1.95837L3.33404 1.74689L3.14634 1.49678ZM5.35737 1.77296L5.21739 2.33433L12.1209 4.12017L12.2609 3.56009L5.35737 1.77296ZM1.79968 2.81652C1.53913 3.14485 1.3053 3.49893 1.1017 3.8691L1.59958 4.15236C1.78759 3.80794 2.00329 3.48283 2.24411 3.17704L1.79968 2.81652ZM5.86002 3.09979C5.73595 3.9367 5.9491 4.87661 6.31177 5.64914C6.51538 6.08047 6.76352 6.4603 7.00848 6.73712C7.1421 6.88841 7.27572 7.00429 7.39661 7.08798L7.22481 7.77039C7.07847 7.78326 6.90668 7.82189 6.7158 7.88948C6.36904 8.0118 5.97137 8.22425 5.58961 8.50429C4.90244 9.00644 4.27253 9.72425 3.98621 10.5193L9.31495 11.9002C9.43902 11.0633 9.22587 10.1234 8.8632 9.35086C8.6596 8.91953 8.41145 8.5397 8.16649 8.26288C8.03287 8.11159 7.89926 7.99571 7.77837 7.91202L7.95016 7.22961C8.09332 7.21352 8.26829 7.17811 8.45917 7.11051C8.80594 6.9882 9.2036 6.77575 9.58537 6.49571C10.2725 5.99356 10.9024 5.27575 11.1888 4.48069L5.86002 3.09979ZM0.818876 4.43884C0.649311 4.82511 0.510286 5.22425 0.405302 5.63948L0.9614 5.77468C1.05779 5.39485 1.18537 5.0279 1.34157 4.67382L0.818876 4.43884ZM0.276776 6.26073C0.210286 6.66309 0.174973 7.07833 0.174973 7.5V7.52897L0.747614 7.52253V7.5C0.747614 7.11051 0.780064 6.72747 0.841463 6.35408L0.276776 6.26073ZM3.05408 10.8798L2.9141 11.4399L9.8176 13.2264L9.95758 12.6663L3.05408 10.8798Z" fill="#555855"/>
</svg>
