<svg width="90" height="90" viewBox="0 0 90 90" fill="none" xmlns="http://www.w3.org/2000/svg">
<circle cx="45" cy="45" r="45" fill="#1A252F"/>
<path d="M28.75 53.7197V59.5464C28.75 60.083 29.1717 60.5047 29.7083 60.5047H35.535C35.7842 60.5047 36.0333 60.4089 36.2058 60.2172L57.1358 39.3064L49.9483 32.1189L29.0375 53.0297C28.8458 53.2214 28.75 53.4514 28.75 53.7197ZM62.6942 33.748C62.8718 33.5707 63.0128 33.3601 63.109 33.1282C63.2052 32.8963 63.2547 32.6478 63.2547 32.3968C63.2547 32.1457 63.2052 31.8972 63.109 31.6653C63.0128 31.4335 62.8718 31.2228 62.6942 31.0455L58.2092 26.5605C58.0319 26.3828 57.8212 26.2419 57.5894 26.1457C57.3575 26.0495 57.1089 26 56.8579 26C56.6069 26 56.3583 26.0495 56.1265 26.1457C55.8946 26.2419 55.684 26.3828 55.5067 26.5605L51.9992 30.068L59.1867 37.2555L62.6942 33.748Z" fill="white"/>
</svg>
