<svg width="30" height="31" viewBox="0 0 30 31" fill="none" xmlns="http://www.w3.org/2000/svg">
<path d="M27.5 2.80769H23.75V1.65385C23.75 1.34783 23.6183 1.05434 23.3839 0.837954C23.1495 0.621566 22.8315 0.5 22.5 0.5C22.1685 0.5 21.8505 0.621566 21.6161 0.837954C21.3817 1.05434 21.25 1.34783 21.25 1.65385V2.80769H8.75V1.65385C8.75 1.34783 8.6183 1.05434 8.38388 0.837954C8.14946 0.621566 7.83152 0.5 7.5 0.5C7.16848 0.5 6.85054 0.621566 6.61612 0.837954C6.3817 1.05434 6.25 1.34783 6.25 1.65385V2.80769H2.5C1.83696 2.80769 1.20107 3.05082 0.732233 3.4836C0.263392 3.91638 0 4.50335 0 5.11538V28.1923C0 28.8043 0.263392 29.3913 0.732233 29.8241C1.20107 30.2569 1.83696 30.5 2.5 30.5H27.5C28.163 30.5 28.7989 30.2569 29.2678 29.8241C29.7366 29.3913 30 28.8043 30 28.1923V5.11538C30 4.50335 29.7366 3.91638 29.2678 3.4836C28.7989 3.05082 28.163 2.80769 27.5 2.80769ZM6.25 5.11538V6.26923C6.25 6.57525 6.3817 6.86873 6.61612 7.08512C6.85054 7.30151 7.16848 7.42308 7.5 7.42308C7.83152 7.42308 8.14946 7.30151 8.38388 7.08512C8.6183 6.86873 8.75 6.57525 8.75 6.26923V5.11538H21.25V6.26923C21.25 6.57525 21.3817 6.86873 21.6161 7.08512C21.8505 7.30151 22.1685 7.42308 22.5 7.42308C22.8315 7.42308 23.1495 7.30151 23.3839 7.08512C23.6183 6.86873 23.75 6.57525 23.75 6.26923V5.11538H27.5V9.73077H2.5V5.11538H6.25ZM27.5 28.1923H2.5V12.0385H27.5V28.1923ZM12.5 15.5V24.7308C12.5 25.0368 12.3683 25.3303 12.1339 25.5467C11.8995 25.7631 11.5815 25.8846 11.25 25.8846C10.9185 25.8846 10.6005 25.7631 10.3661 25.5467C10.1317 25.3303 10 25.0368 10 24.7308V17.3663L9.30938 17.6865C9.01266 17.8235 8.66917 17.846 8.35446 17.7492C8.03975 17.6523 7.7796 17.4441 7.63125 17.1702C7.48289 16.8963 7.45848 16.5792 7.56339 16.2887C7.66829 15.9982 7.89391 15.7581 8.19062 15.6212L10.6906 14.4673C10.8813 14.3792 11.0931 14.3377 11.3061 14.3465C11.5191 14.3553 11.7261 14.4143 11.9074 14.5178C12.0887 14.6213 12.2383 14.7658 12.3421 14.9378C12.4458 15.1097 12.5002 15.3032 12.5 15.5ZM21.7438 19.8918L18.75 23.5769H21.25C21.5815 23.5769 21.8995 23.6985 22.1339 23.9149C22.3683 24.1313 22.5 24.4248 22.5 24.7308C22.5 25.0368 22.3683 25.3303 22.1339 25.5467C21.8995 25.7631 21.5815 25.8846 21.25 25.8846H16.25C16.0179 25.8846 15.7903 25.8249 15.5928 25.7123C15.3954 25.5996 15.2358 25.4384 15.132 25.2468C15.0282 25.0551 14.9842 24.8406 15.005 24.6271C15.0259 24.4137 15.1107 24.2099 15.25 24.0385L19.7469 18.5043C19.8492 18.3786 19.9225 18.235 19.9625 18.0822C20.0025 17.9293 20.0082 17.7706 19.9793 17.6157C19.9504 17.4607 19.8876 17.3129 19.7946 17.1812C19.7016 17.0495 19.5804 16.9367 19.4385 16.8498C19.2965 16.7629 19.1369 16.7037 18.9693 16.6758C18.8017 16.6479 18.6297 16.6519 18.4638 16.6876C18.2979 16.7233 18.1417 16.7898 18.0047 16.8832C17.8677 16.9767 17.7529 17.0949 17.6672 17.2308C17.5875 17.3662 17.4793 17.4855 17.3489 17.5817C17.2185 17.6778 17.0685 17.7489 16.9078 17.7907C16.7472 17.8325 16.5791 17.8442 16.4135 17.8251C16.2478 17.8059 16.088 17.7564 15.9435 17.6793C15.7989 17.6022 15.6726 17.4992 15.5719 17.3763C15.4711 17.2535 15.3981 17.1132 15.3571 16.9639C15.316 16.8145 15.3078 16.6591 15.3329 16.5068C15.358 16.3544 15.4159 16.2083 15.5031 16.0769C15.916 15.4173 16.5531 14.9019 17.3156 14.6105C18.0782 14.3191 18.9235 14.2681 19.7207 14.4653C20.5178 14.6625 21.2222 15.0969 21.7247 15.7012C22.2272 16.3055 22.4997 17.0459 22.5 17.8077C22.5027 18.5602 22.2369 19.2926 21.7438 19.8918Z" fill="#555855"/>
</svg>
