<svg width="25" height="25" viewBox="0 0 25 25" fill="none" xmlns="http://www.w3.org/2000/svg">
<path d="M22.7137 10.4599H21.8747V10.4167H12.4997V14.5833H18.3867C17.5278 17.0089 15.22 18.75 12.4997 18.75C9.04811 18.75 6.24967 15.9516 6.24967 12.5C6.24967 9.04845 9.04811 6.25001 12.4997 6.25001C14.0929 6.25001 15.5424 6.85105 16.646 7.83282L19.5924 4.88647C17.732 3.15261 15.2434 2.08334 12.4997 2.08334C6.74707 2.08334 2.08301 6.74741 2.08301 12.5C2.08301 18.2526 6.74707 22.9167 12.4997 22.9167C18.2523 22.9167 22.9163 18.2526 22.9163 12.5C22.9163 11.8016 22.8445 11.1198 22.7137 10.4599Z" fill="#FFC107"/>
<path d="M3.28418 7.65157L6.70658 10.1615C7.63262 7.86876 9.87533 6.25001 12.4998 6.25001C14.093 6.25001 15.5425 6.85105 16.6462 7.83282L19.5925 4.88647C17.7321 3.15261 15.2436 2.08334 12.4998 2.08334C8.49876 2.08334 5.02897 4.3422 3.28418 7.65157Z" fill="#FF3D00"/>
<path d="M12.5 22.9167C15.1906 22.9167 17.6354 21.887 19.4839 20.2125L16.2599 17.4844C15.1791 18.3068 13.8581 18.7515 12.5 18.75C9.79062 18.75 7.4901 17.0224 6.62344 14.6115L3.22656 17.2286C4.95052 20.6021 8.45156 22.9167 12.5 22.9167Z" fill="#4CAF50"/>
<path d="M22.7141 10.4599H21.875V10.4167H12.5V14.5833H18.387C17.9762 15.7377 17.2361 16.7464 16.2583 17.4849L16.2599 17.4838L19.4839 20.212C19.2557 20.4193 22.9167 17.7083 22.9167 12.5C22.9167 11.8016 22.8448 11.1198 22.7141 10.4599Z" fill="#1976D2"/>
</svg>
