<svg width="30" height="30" viewBox="0 0 30 30" fill="none" xmlns="http://www.w3.org/2000/svg">
<path d="M7.5 17.25C8.125 17.25 8.6565 17.0315 9.0945 16.5945C9.5325 16.1575 9.751 15.626 9.75 15C9.749 14.374 9.5305 13.843 9.0945 13.407C8.6585 12.971 8.127 12.752 7.5 12.75C6.873 12.748 6.342 12.967 5.907 13.407C5.472 13.847 5.253 14.378 5.25 15C5.247 15.622 5.466 16.1535 5.907 16.5945C6.348 17.0355 6.879 17.254 7.5 17.25ZM15 17.25C15.625 17.25 16.1565 17.0315 16.5945 16.5945C17.0325 16.1575 17.251 15.626 17.25 15C17.249 14.374 17.0305 13.843 16.5945 13.407C16.1585 12.971 15.627 12.752 15 12.75C14.373 12.748 13.842 12.967 13.407 13.407C12.972 13.847 12.753 14.378 12.75 15C12.747 15.622 12.966 16.1535 13.407 16.5945C13.848 17.0355 14.379 17.254 15 17.25ZM22.5 17.25C23.125 17.25 23.6565 17.0315 24.0945 16.5945C24.5325 16.1575 24.751 15.626 24.75 15C24.749 14.374 24.5305 13.843 24.0945 13.407C23.6585 12.971 23.127 12.752 22.5 12.75C21.873 12.748 21.342 12.967 20.907 13.407C20.472 13.847 20.253 14.378 20.25 15C20.247 15.622 20.466 16.1535 20.907 16.5945C21.348 17.0355 21.879 17.254 22.5 17.25ZM15 30C12.925 30 10.975 29.606 9.15 28.818C7.325 28.03 5.7375 26.9615 4.3875 25.6125C3.0375 24.2635 1.969 22.676 1.182 20.85C0.395002 19.024 0.0010019 17.074 1.89873e-06 15C-0.000998101 12.926 0.393002 10.976 1.182 9.15C1.971 7.324 3.0395 5.7365 4.3875 4.3875C5.7355 3.0385 7.323 1.97 9.15 1.182C10.977 0.394 12.927 0 15 0C17.073 0 19.023 0.394 20.85 1.182C22.677 1.97 24.2645 3.0385 25.6125 4.3875C26.9605 5.7365 28.0295 7.324 28.8195 9.15C29.6095 10.976 30.003 12.926 30 15C29.997 17.074 29.603 19.024 28.818 20.85C28.033 22.676 26.9645 24.2635 25.6125 25.6125C24.2605 26.9615 22.673 28.0305 20.85 28.8195C19.027 29.6085 17.077 30.002 15 30ZM15 27C18.35 27 21.1875 25.8375 23.5125 23.5125C25.8375 21.1875 27 18.35 27 15C27 11.65 25.8375 8.8125 23.5125 6.4875C21.1875 4.1625 18.35 3 15 3C11.65 3 8.8125 4.1625 6.4875 6.4875C4.1625 8.8125 3 11.65 3 15C3 18.35 4.1625 21.1875 6.4875 23.5125C8.8125 25.8375 11.65 27 15 27Z" fill="#1A252F"/>
</svg>
