<svg width="27" height="27" viewBox="0 0 27 27" fill="none" xmlns="http://www.w3.org/2000/svg">
<path d="M19.75 1V6.55556M7.25 1V6.55556M1 12.1111H26M11.9375 17.6667H13.5V21.8333M1 6.55556C1 5.81884 1.32924 5.1123 1.91529 4.59137C2.50134 4.07044 3.2962 3.77778 4.125 3.77778H22.875C23.7038 3.77778 24.4987 4.07044 25.0847 4.59137C25.6708 5.1123 26 5.81884 26 6.55556V23.2222C26 23.9589 25.6708 24.6655 25.0847 25.1864C24.4987 25.7073 23.7038 26 22.875 26H4.125C3.2962 26 2.50134 25.7073 1.91529 25.1864C1.32924 24.6655 1 23.9589 1 23.2222V6.55556Z" stroke="#555855" stroke-width="2" stroke-linecap="round" stroke-linejoin="round"/>
</svg>
